Coordinates
version=1
nRows=29
nColumns=18
inDegrees=yes

Units are S.I. units (second, meters, Newtons, ...)
If the header above contains a line with 'inDegrees', this indicates whether rotational values are in degrees (yes) or radians (no).

endheader
time	ground_thorax_rot_x	ground_thorax_rot_y	ground_thorax_rot_z	ground_thorax_tx	ground_thorax_ty	ground_thorax_tz	clav_prot	clav_elev	scapula_abduction	scapula_elevation	scapula_upward_rot	scapula_winging	plane_elv	shoulder_elv	axial_rot	elbow_flexion	pro_sup
      2.16000000	      1.01556586	     -8.40331631	     -7.45130981	     -0.00686130	      0.00767072	      0.00229823	    -25.66074432	     13.67704866	    -16.78286088	      5.97705768	     26.11221434	     -0.31953470	    -18.73031359	      3.18524192	     39.37982181	      0.00000000	     34.32000000
      2.17000000	      1.01481829	     -8.40312034	     -7.45148231	     -0.00685522	      0.00773208	      0.00227416	    -25.66062152	     13.67749430	    -16.78268429	      5.97732521	     26.11252028	     -0.31956159	    -18.73030015	      3.18522423	     39.37980373	      0.00000000	     34.32000000
      2.18000000	      1.01509423	     -8.40323667	     -7.45140324	     -0.00686615	      0.00768864	      0.00222252	    -25.66046884	     13.67748843	    -16.78262823	      5.97740020	     26.11223643	     -0.31943930	    -18.73031265	      3.18487508	     39.37977176	      0.00000000	     34.32000000
      2.19000000	      1.01542551	     -8.40357857	     -7.45160452	     -0.00690004	      0.00764488	      0.00221449	    -25.66035623	     13.67754383	    -16.78275827	      5.97754041	     26.11185707	     -0.31928218	    -18.73036271	      3.18488327	     39.37976042	      0.00000000	     34.32000000
      2.20000000	      1.01468906	     -8.40425778	     -7.45242721	     -0.00694764	      0.00770956	      0.00221997	    -25.66034989	     13.67822963	    -16.78316372	      5.97804403	     26.11188340	     -0.31919887	    -18.73043813	      3.18543156	     39.37977436	      0.00000000	     34.32000000
      2.21000000	      0.97956272	     -8.42847346	     -7.46447236	     -0.00690967	      0.00770404	      0.00217328	    -25.66086429	     13.70278294	    -16.79573857	      5.99501957	     26.11701693	     -0.31778118	    -18.73271376	      3.19751725	     39.37935111	      0.00000000	     34.32000000
      2.22000000	      0.97914062	     -8.42887608	     -7.46452015	     -0.00692116	      0.00774285	      0.00213961	    -25.66080811	     13.70310595	    -16.79586421	      5.99526991	     26.11699141	     -0.31771961	    -18.73273567	      3.19728140	     39.37930706	      0.00000000	     34.32000000
      2.23000000	      0.97880167	     -8.42866091	     -7.46433625	     -0.00689330	      0.00771382	      0.00218489	    -25.66073298	     13.70327277	    -16.79571359	      5.99536254	     26.11714690	     -0.31773906	    -18.73272614	      3.19741293	     39.37929863	      0.00000000	     34.32000000
      2.24000000	      0.97808880	     -8.42825571	     -7.46463715	     -0.00685295	      0.00771207	      0.00226845	    -25.66067738	     13.70375908	    -16.79561468	      5.99563399	     26.11754149	     -0.31780183	    -18.73273775	      3.19814667	     39.37932781	      0.00000000	     34.32000000
      2.25000000	      0.96019341	     -8.43922358	     -7.49898757	     -0.00673160	      0.00763610	      0.00227689	    -25.66040146	     13.73210928	    -16.81081656	      6.01597858	     26.12063289	     -0.31501834	    -18.73707347	      3.22981843	     39.37955624	      0.00000000	     34.32000000
      2.26000000	      0.96019299	     -8.43977593	     -7.49975632	     -0.00675761	      0.00769248	      0.00222610	    -25.66032490	     13.73262977	    -16.81128118	      6.01645304	     26.12028938	     -0.31481645	    -18.73719717	      3.22983672	     39.37950336	      0.00000000	     34.32000000
      2.27000000	      0.96910382	     -8.46890311	     -7.52933384	     -0.00674879	      0.00767246	      0.00223324	    -25.65116375	     13.75913322	    -16.83733133	      6.04462669	     26.08768753	     -0.29841631	    -18.74570330	      3.22102180	     39.37580987	      0.00000000	     34.32000000
      2.28000000	      0.98396648	     -8.50740412	     -7.54101826	     -0.00681837	      0.00764972	      0.00223862	    -25.64729824	     13.77123578	    -16.86201145	      6.06118965	     26.05724251	     -0.28554931	    -18.75220172	      3.21224105	     39.37364506	      0.00000000	     34.32000000
      2.29000000	      0.98577239	     -8.56511664	     -7.55068807	     -0.00684936	      0.00761368	      0.00227613	    -25.64914175	     13.78804322	    -16.89606540	      6.07961340	     26.03178579	     -0.27471523	    -18.75939538	      3.21741207	     39.37279231	      0.00000000	     34.32000000
      2.30000000	      0.95970273	     -8.62242392	     -7.53062086	     -0.00687315	      0.00763650	      0.00225117	    -25.65364643	     13.80799856	    -16.92343721	      6.09607039	     26.02360594	     -0.26981292	    -18.76429025	      3.21929656	     39.37196563	      0.00000000	     34.32000000
      2.31000000	      0.92323583	     -8.65626593	     -7.51838290	     -0.00688066	      0.00766365	      0.00218464	    -25.65673465	     13.82867527	    -16.93875773	      6.11013510	     26.02807079	     -0.26904042	    -18.76614200	      3.22026283	     39.37167931	      0.00000000	     34.32000000
      2.32000000	      0.92299771	     -8.65682413	     -7.51843406	     -0.00690809	      0.00769651	      0.00216371	    -25.65669930	     13.82896571	    -16.93901267	      6.11038013	     26.02796272	     -0.26892429	    -18.76618647	      3.22010721	     39.37166069	      0.00000000	     34.32000000
      2.33000000	      0.92393008	     -8.65649975	     -7.51783755	     -0.00688001	      0.00755982	      0.00224805	    -25.65658023	     13.82854918	    -16.93880210	      6.11016263	     26.02761594	     -0.26884177	    -18.76621862	      3.22010365	     39.37166636	      0.00000000	     34.32000000
      2.34000000	      1.03749952	     -8.64157349	     -7.52798410	     -0.00679558	      0.00747271	      0.00234698	    -25.64708928	     13.81324765	    -16.92964361	      6.10486824	     26.00506282	     -0.26159504	    -18.77177948	      3.34811250	     39.38668354	      0.00000000	     34.32000000
      2.35000000	      1.07873651	     -8.65707014	     -7.53055600	     -0.00680565	      0.00740342	      0.00248221	    -25.64642680	     13.80199690	    -16.94072701	      6.10255516	     25.98011838	     -0.25432786	    -18.77618556	      3.37252982	     39.38864528	      0.00000000	     34.32000000
      2.36000000	      1.06934558	     -8.67602844	     -7.52619304	     -0.00684067	      0.00741069	      0.00245082	    -25.65289861	     13.80501628	    -16.95142099	      6.10345027	     25.98376085	     -0.25620655	    -18.77848614	      3.41539951	     39.39187477	      0.00000000	     34.32000000
      2.37000000	      1.06949921	     -8.67661457	     -7.52623353	     -0.00687488	      0.00747475	      0.00238558	    -25.65286190	     13.80504538	    -16.95167833	      6.10356768	     25.98337149	     -0.25606334	    -18.77853510	      3.41525617	     39.39185280	      0.00000000	     34.32000000
      2.38000000	      1.09926951	     -8.67616110	     -7.50281462	     -0.00687494	      0.00751904	      0.00232748	    -25.64508124	     13.78536836	    -16.94710261	      6.09628736	     25.95518638	     -0.24769317	    -18.77816281	      3.38742651	     39.39051398	      0.00000000	     34.32000000
      2.39000000	      1.11428349	     -8.68557179	     -7.48388329	     -0.00689100	      0.00744349	      0.00227880	    -25.64053054	     13.76681606	    -16.94753172	      6.08911464	     25.92896736	     -0.24040256	    -18.77638637	      3.37472898	     39.39275198	      0.00000000	     34.32000000
      2.40000000	      1.11504579	     -8.68672346	     -7.48374096	     -0.00697010	      0.00734059	      0.00225162	    -25.64068747	     13.76633554	    -16.94805159	      6.08892765	     25.92826032	     -0.24021314	    -18.77645772	      3.37495441	     39.39281182	      0.00000000	     34.32000000
      2.41000000	      1.12377879	     -8.75623702	     -7.47051426	     -0.00691299	      0.00738233	      0.00240272	    -25.65079963	     13.73848711	    -16.97658939	      6.07608356	     25.89222297	     -0.23310668	    -18.77959105	      3.43507561	     39.40459114	      0.00000000	     34.32000000
      2.42000000	      1.12407465	     -8.75663243	     -7.47072132	     -0.00693115	      0.00738333	      0.00237919	    -25.65072914	     13.73836877	    -16.97677139	      6.07611878	     25.89173194	     -0.23293965	    -18.77962837	      3.43515181	     39.40463849	      0.00000000	     34.32000000
      2.43000000	      1.13744852	     -8.75379749	     -7.47781501	     -0.00687858	      0.00745632	      0.00236571	    -25.63782364	     13.73071123	    -16.97362564	      6.07903896	     25.85985950	     -0.22077579	    -18.77893062	      3.42409586	     39.40741995	      0.00000000	     34.32000000
      2.44000000	      1.14332115	     -8.74731593	     -7.48175256	     -0.00690106	      0.00744590	      0.00235390	    -25.61931518	     13.72095570	    -16.96417263	      6.08234090	     25.82157582	     -0.20567496	    -18.77531397	      3.41365774	     39.41348947	      0.00000000	     34.32000000
